<?xml version="1.0" encoding="UTF-8"?>
<svg version="1.1" xmlns="http://www.w3.org/2000/svg" width="500" height="500">
<path d="M0 0 C23.76 0 47.52 0 72 0 C85.39990234 17.52294922 85.39990234 17.52294922 90.25585938 23.87695312 C95.29422982 30.46876384 100.34441474 37.05118797 105.40625 43.625 C108.44607633 47.57677422 111.47273515 51.53860018 114.5 55.5 C118.38895443 60.58864789 122.28174566 65.67423309 126.1875 70.75 C126.97253906 71.7709375 127.75757813 72.791875 128.56640625 73.84375 C130.31996037 76.11802244 132.07769139 78.38866485 133.83984375 80.65625 C134.53847534 81.55778809 134.53847534 81.55778809 135.2512207 82.47753906 C136.15010703 83.63728932 137.05091209 84.79555559 137.95385742 85.95214844 C141 89.8874918 141 89.8874918 141 91 C123.18 91.33 105.36 91.66 87 92 C94.35819231 101.0084951 94.35819231 101.0084951 101.875 109.875 C102.90268226 111.06871908 103.93001813 112.26273643 104.95703125 113.45703125 C105.46443848 114.04693848 105.9718457 114.6368457 106.49462891 115.24462891 C110.23472525 119.60585055 113.93466636 124.00130273 117.64111328 128.39111328 C119.92546182 131.09572285 122.21285882 133.79775202 124.5 136.5 C127.23976973 139.73702676 129.97895547 142.9745353 132.71484375 146.21484375 C133.62230733 147.28913726 134.5298596 148.36335587 135.4375 149.4375 C135.88722168 149.96972168 136.33694336 150.50194336 136.80029297 151.05029297 C139.71251179 154.49181816 142.64356308 157.91653656 145.58398438 161.33398438 C149.59165256 165.99181926 153.56841613 170.66303636 157.4375 175.4375 C161.58060991 180.54307465 165.8823045 185.49800053 170.20288086 190.45288086 C174.10421641 194.93750851 177.88485162 199.5048167 181.625 204.125 C184.52495875 207.63547639 187.50758138 211.06832727 190.5 214.5 C194.97534516 219.63227656 199.34007126 224.83185274 203.625 230.125 C206.52495875 233.63547639 209.50758138 237.06832727 212.5 240.5 C216.97534516 245.63227656 221.34007126 250.83185274 225.625 256.125 C228.52495875 259.63547639 231.50758138 263.06832727 234.5 266.5 C238.97534516 271.63227656 243.34007126 276.83185274 247.625 282.125 C250.52495875 285.63547639 253.50758138 289.06832727 256.5 292.5 C260.23404443 296.78216104 263.92458646 301.08331268 267.5 305.5 C271.57757127 310.53348541 275.80505915 315.42333309 280.05810547 320.30810547 C284.96991597 325.95246679 289.81024778 331.6541942 294.63085938 337.37646484 C296.06939665 339.08229096 297.51084641 340.7856175 298.953125 342.48828125 C299.44216309 343.06562012 299.93120117 343.64295898 300.43505859 344.23779297 C301.35978032 345.32933461 302.28457844 346.42081155 303.20947266 347.51220703 C304.47469875 349.00668612 305.73736794 350.50332866 307 352 C307.47211914 352.54156738 307.94423828 353.08313477 308.43066406 353.64111328 C312 357.78359979 312 357.78359979 312 360 C298.79553539 360.27891968 285.59177941 360.49169954 272.38496113 360.62174606 C266.25126386 360.68418669 260.11959212 360.76877178 253.98706055 360.90527344 C248.06055722 361.03635281 242.13599263 361.1075518 236.20815086 361.13852692 C233.95501386 361.16057847 231.70197458 361.20364317 229.44967079 361.26876068 C209.96378216 361.80935243 209.96378216 361.80935243 202.93175793 355.79558182 C200.43049783 353.32891185 198.22412696 350.72081662 196 348 C194.71547855 346.8025978 193.41035716 345.62563246 192.0625 344.5 C191.44890625 343.96761719 190.8353125 343.43523437 190.203125 342.88671875 C188.42535719 341.36426866 186.64347295 339.84704005 184.859375 338.33203125 C178.27580547 332.73207562 171.8063603 327.0463913 165.48046875 321.15625 C162.02630626 317.94030561 158.52564408 314.79482045 154.95703125 311.70703125 C152.6144085 309.66366569 150.30726578 307.58319141 148 305.5 C142.67665307 300.70092208 137.31136661 295.9592205 131.84765625 291.3203125 C125.26681821 285.72558261 118.80234102 280.04264888 112.48046875 274.15625 C109.02630626 270.94030561 105.52564408 267.79482045 101.95703125 264.70703125 C99.6144085 262.66366569 97.30726578 260.58319141 95 258.5 C91.19677998 255.06710898 87.36287677 251.67356693 83.49609375 248.3125 C82.64347059 247.56450684 81.80201622 246.80201622 81 246 C80.67 283.62 80.34 321.24 80 360 C53.6 360 27.2 360 0 360 C0 241.2 0 122.4 0 0 Z " fill="#854CE6" transform="translate(94,56)"/>
<path d="M0 0 C36.64215338 0.97194041 71.49877676 11.76883277 97.68164062 38.19555664 C118.48499197 60.18658267 125.22582174 89.38981283 125.25 118.875 C125.25067474 119.61232361 125.25134949 120.34964722 125.25204468 121.10931396 C125.21316007 147.85102024 119.38001176 174.62144863 101 195 C99.71416016 196.48113281 99.71416016 196.48113281 98.40234375 197.9921875 C92.79168727 204.37064948 86.84278443 209.93804717 80 215 C79.30777344 215.58652344 78.61554688 216.17304688 77.90234375 216.77734375 C77.27457031 217.18082031 76.64679688 217.58429688 76 218 C71.75545871 216.5851529 70.43393414 213.4928483 68.125 209.875 C67.0445629 208.2190109 65.9623959 206.56414973 64.87890625 204.91015625 C64.26934082 203.97703613 63.65977539 203.04391602 63.03173828 202.08251953 C59.53690282 196.78021329 55.96447283 191.53061212 52.396698 186.27722168 C51.05335524 184.29903355 49.71118916 182.32005219 48.36938477 180.34082031 C46.52525561 177.62069119 44.68077855 174.90079869 42.8359375 172.18115234 C38.53326857 165.83791773 34.23288277 159.49313634 29.93331909 153.14779663 C28.59852009 151.17815166 27.26327145 149.2088121 25.92797852 147.23950195 C24.32489582 144.87504938 22.72415609 142.50904104 21.12548828 140.14160156 C19.78131254 138.15482768 18.4314442 136.17188298 17.07373047 134.19433594 C16.52217285 133.38512695 15.97061523 132.57591797 15.40234375 131.7421875 C14.93175537 131.05753418 14.46116699 130.37288086 13.97631836 129.66748047 C13 128 13 128 13 126 C31.81 126 50.62 126 70 126 C61.47676764 110.50995163 52.92898682 95.04288293 44.20703125 79.6640625 C40.80449429 73.66278691 37.43115011 67.64534767 34.0625 61.625 C33.48169678 60.58714355 32.90089355 59.54928711 32.30249023 58.47998047 C29.94424158 54.26497422 27.58688658 50.04946845 25.22949219 45.83398438 C23.46590636 42.68075913 21.70179781 39.52782693 19.9375 36.375 C19.36765381 35.35615723 18.79780762 34.33731445 18.21069336 33.28759766 C15.23210356 27.96708899 12.24070451 22.65423845 9.23046875 17.3515625 C8.62533447 16.28502441 8.0202002 15.21848633 7.39672852 14.11962891 C6.23639533 12.07653432 5.07419294 10.0344999 3.90991211 7.99365234 C3.13852905 6.63554443 3.13852905 6.63554443 2.3515625 5.25 C1.89604004 4.45078125 1.44051758 3.6515625 0.97119141 2.828125 C0 1 0 1 0 0 Z " fill="#FFFFFF" transform="translate(270,56)"/>
</svg>
